<?xml version="1.0" encoding="UTF-8" standalone="no"?>
<!-- Created with Inkscape (http://www.inkscape.org/) -->

<svg
   version="1.1"
   id="svg1"
   width="113"
   height="113"
   viewBox="0 0 113.00001 113"
   xmlns="http://www.w3.org/2000/svg"
   xmlns:svg="http://www.w3.org/2000/svg">
  <defs
     id="defs1">
    <clipPath
       clipPathUnits="userSpaceOnUse"
       id="clipPath2">
      <path
         d="M 0,94.961 H 113.725 V 0 H 0 Z"
         transform="translate(-56.940701,-16.737198)"
         id="path2" />
    </clipPath>
    <clipPath
       clipPathUnits="userSpaceOnUse"
       id="clipPath4">
      <path
         d="M 0,94.961 H 113.725 V 0 H 0 Z"
         transform="translate(-77.612604,-42.204001)"
         id="path4" />
    </clipPath>
    <clipPath
       clipPathUnits="userSpaceOnUse"
       id="clipPath6">
      <path
         d="M 0,94.961 H 113.725 V 0 H 0 Z"
         transform="translate(-71.556902,-51.804602)"
         id="path6" />
    </clipPath>
    <clipPath
       clipPathUnits="userSpaceOnUse"
       id="clipPath8">
      <path
         d="M 0,94.961 H 113.725 V 0 H 0 Z"
         transform="translate(-71.347902,-47.595601)"
         id="path8" />
    </clipPath>
    <clipPath
       clipPathUnits="userSpaceOnUse"
       id="clipPath10">
      <path
         d="M 0,94.961 H 113.725 V 0 H 0 Z"
         transform="translate(-75.932904,-42.594601)"
         id="path10" />
    </clipPath>
    <clipPath
       clipPathUnits="userSpaceOnUse"
       id="clipPath12">
      <path
         d="M 0,94.961 H 113.725 V 0 H 0 Z"
         transform="translate(-55.595002,-38.757701)"
         id="path12" />
    </clipPath>
    <clipPath
       clipPathUnits="userSpaceOnUse"
       id="clipPath14">
      <path
         d="M 0,94.961 H 113.725 V 0 H 0 Z"
         transform="translate(-64.820602,-68.776202)"
         id="path14" />
    </clipPath>
    <clipPath
       clipPathUnits="userSpaceOnUse"
       id="clipPath16">
      <path
         d="M 0,94.961 H 113.725 V 0 H 0 Z"
         transform="translate(-61.201402,-69.782102)"
         id="path16" />
    </clipPath>
    <clipPath
       clipPathUnits="userSpaceOnUse"
       id="clipPath18">
      <path
         d="M 0,94.961 H 113.725 V 0 H 0 Z"
         transform="translate(-57.179902,-70.176602)"
         id="path18" />
    </clipPath>
    <clipPath
       clipPathUnits="userSpaceOnUse"
       id="clipPath20">
      <path
         d="M 0,94.961 H 113.725 V 0 H 0 Z"
         transform="translate(-53.271701,-69.883701)"
         id="path20" />
    </clipPath>
    <clipPath
       clipPathUnits="userSpaceOnUse"
       id="clipPath22">
      <path
         d="M 0,94.961 H 113.725 V 0 H 0 Z"
         transform="translate(-49.281501,-68.970602)"
         id="path22" />
    </clipPath>
    <clipPath
       clipPathUnits="userSpaceOnUse"
       id="clipPath24">
      <path
         d="M 0,94.961 H 113.725 V 0 H 0 Z"
         transform="translate(-45.553001,-67.246902)"
         id="path24" />
    </clipPath>
    <clipPath
       clipPathUnits="userSpaceOnUse"
       id="clipPath26">
      <path
         d="M 0,94.961 H 113.725 V 0 H 0 Z"
         transform="translate(-42.089101,-64.800702)"
         id="path26" />
    </clipPath>
    <clipPath
       clipPathUnits="userSpaceOnUse"
       id="clipPath28">
      <path
         d="M 0,94.961 H 113.725 V 0 H 0 Z"
         transform="translate(-39.068601,-61.688301)"
         id="path28" />
    </clipPath>
    <clipPath
       clipPathUnits="userSpaceOnUse"
       id="clipPath30">
      <path
         d="M 0,94.961 H 113.725 V 0 H 0 Z"
         transform="translate(-33.511001,-58.473501)"
         id="path30" />
    </clipPath>
    <clipPath
       clipPathUnits="userSpaceOnUse"
       id="clipPath32">
      <path
         d="M 0,94.961 H 113.725 V 0 H 0 Z"
         transform="translate(-31.787401,-53.695202)"
         id="path32" />
    </clipPath>
    <clipPath
       clipPathUnits="userSpaceOnUse"
       id="clipPath34">
      <path
         d="M 0,94.961 H 113.725 V 0 H 0 Z"
         transform="translate(-34.225801,-49.874901)"
         id="path34" />
    </clipPath>
    <clipPath
       clipPathUnits="userSpaceOnUse"
       id="clipPath36">
      <path
         d="M 0,94.961 H 113.725 V 0 H 0 Z"
         transform="translate(-34.147701,-45.598501)"
         id="path36" />
    </clipPath>
    <clipPath
       clipPathUnits="userSpaceOnUse"
       id="clipPath38">
      <path
         d="M 0,94.961 H 113.725 V 0 H 0 Z"
         transform="translate(-34.857701,-41.323101)"
         id="path38" />
    </clipPath>
    <clipPath
       clipPathUnits="userSpaceOnUse"
       id="clipPath40">
      <path
         d="M 0,94.961 H 113.725 V 0 H 0 Z"
         transform="translate(-36.037401,-37.529201)"
         id="path40" />
    </clipPath>
    <clipPath
       clipPathUnits="userSpaceOnUse"
       id="clipPath42">
      <path
         d="M 0,94.961 H 113.725 V 0 H 0 Z"
         transform="translate(-38.326401,-34.048701)"
         id="path42" />
    </clipPath>
  </defs>
  <g
     id="layer-MC0"
     transform="translate(-19.420268,-7.017871)">
    <path
       id="path1"
       d="m 0,0 c -16.865,0 -30.585,13.721 -30.585,30.586 0,16.863 13.72,30.583 30.585,30.583 16.862,0 30.584,-13.72 30.584,-30.583 C 30.584,13.721 16.862,0 0,0 m 0,62.048 c -17.351,0 -31.465,-14.114 -31.465,-31.462 0,-17.351 14.114,-31.464 31.465,-31.464 17.349,0 31.464,14.113 31.464,31.464 0,17.348 -14.115,31.462 -31.464,31.462"
       style="fill:#eeeeee;fill-opacity:1;fill-rule:nonzero;stroke:none"
       transform="matrix(1.3333333,0,0,-1.3333333,75.920933,104.29787)"
       clip-path="url(#clipPath2)" />
    <path
       id="path3"
       d="m 0,0 c -0.977,-0.863 -2.476,-0.934 -3.082,-1.485 -0.316,-0.288 -0.459,-0.741 -0.117,-1.549 0.196,-0.465 0.332,-0.523 -0.338,-0.701 -1.087,-0.291 -1.236,-1.719 -2.621,-1.457 -0.555,0.105 -0.156,-0.25 0.043,-0.27 0.793,-0.074 1.106,0.149 1.385,0.409 0.277,0.26 0.648,0.729 1.074,0.89 0.438,0.166 0.882,0.155 0.889,-0.174 0.006,-0.25 -0.547,-0.648 -0.781,-0.757 0.283,-0.147 1.151,-0.588 0.41,-1.091 -0.576,-0.391 -1.37,0.152 -1.485,0.219 -0.17,0.099 -0.497,0.05 -0.389,-0.083 0.428,-0.523 1.576,-0.387 1.37,-0.664 -1.059,-1.425 -0.196,-2.257 -0.518,-3.688 -0.327,-1.453 -2.314,-2.247 -3.844,-2.524 -5.202,-0.938 -10.264,3.487 -13.229,6.823 0.27,0.633 0.235,1.46 -0.036,1.166 -0.255,-0.277 -0.213,-0.739 -0.832,-0.895 -1.192,-0.301 -1.706,1.769 -2.075,2.132 -1.449,1.42 -2.024,3.426 -1.158,5.179 0.874,1.773 2.689,1.417 3.415,0.345 0.901,-1.333 0.484,-2.091 0.996,-2.489 0.719,-0.56 1.443,-0.06 1.637,-0.007 0.548,0.15 0.506,-1.298 2.375,-1.23 2.011,0.072 1.783,3.199 2.067,3.476 2.58,2.516 1.263,4.761 0.794,5.283 -0.126,0.14 0.287,1.064 0.439,1.098 1.515,0.335 2.371,1.303 2.833,2.326 0,0 2.516,0.043 3.412,1.855 0.239,0.485 0.98,-0.467 2.661,0.854 0.189,0.149 0.367,0.077 0.438,-0.096 1.08,-2.649 1.535,-3.38 1.452,-4.731 C -2.876,7.183 -0.195,1.732 0,1.262 0.218,0.736 0.25,0.221 0,0 m -11.943,-13.805 c -0.766,-2.648 -1.151,-3.706 -0.001,-6.582 0.152,-0.382 0.267,-0.67 -0.069,-0.612 -2.314,0.397 -2.814,0.777 -10.083,0.161 -0.523,-0.044 0.171,1.014 0.085,1.734 0.664,0.085 1.725,0.389 1.95,1.47 0.273,1.312 -0.641,2.275 -0.544,2.463 1.03,2.01 -0.067,4.236 -0.938,7.969 -0.082,0.349 0.12,0.502 0.273,0.337 4.67,-5.055 7.647,-6.06 9.255,-6.537 0.16,-0.047 0.128,-0.23 0.072,-0.403 m -14.158,-7.004 c -0.478,0.12 -1.798,2.221 -0.724,4.729 0.114,0.265 1.761,0.1 2.037,0.017 0.275,-0.083 -0.227,-2.055 2.036,-2.928 0.231,-0.089 -0.01,-2.646 -3.349,-1.818 m -3.398,1.26 c -0.249,1.103 -0.349,3.014 0.109,3.439 0.091,0.084 1.462,0.281 1.437,-0.033 -0.106,-1.316 -0.637,-2.786 0.365,-4.25 0.375,-0.547 -1.576,-0.634 -1.911,0.844 m 8.087,1.301 c -1.781,-0.617 -2.484,1.466 -2.192,1.915 0.177,0.27 1.301,-0.307 2.177,0.258 0.674,0.434 1.046,-1.816 0.015,-2.173 m -10.52,2.958 c -0.102,0.595 0.47,1.166 0.458,2.464 -0.015,1.591 -1.977,3.773 -3.307,5.177 0.624,0 1.441,0.147 2.358,0.572 1.979,0.916 2.367,3.019 2.424,3.105 0.026,0.039 -0.442,0.132 -1.116,0.141 0.072,0.036 0.145,0.072 0.219,0.112 1.935,1.037 2.442,3.282 2.35,3.33 -0.037,0.021 -0.519,0.096 -1.194,0.078 0.188,0.064 0.384,0.135 0.585,0.215 2.048,0.814 2.62,3.093 2.547,3.166 -0.032,0.033 -0.442,0.115 -1.038,0.13 0.181,0.071 0.367,0.152 0.556,0.245 1.87,0.929 2.518,3.019 2.421,3.088 -0.042,0.03 -0.422,0.104 -0.975,0.113 0.416,0.09 0.872,0.229 1.35,0.439 2.003,0.877 2.65,2.794 2.564,2.875 -0.038,0.035 -0.377,0.129 -0.887,0.171 0.399,0.089 0.836,0.212 1.302,0.371 1.981,0.677 2.782,2.57 2.664,2.581 -0.268,0.025 -0.636,0.155 -1.114,0.238 0.54,0.035 1.169,0.134 1.957,0.401 2.141,0.723 2.9,2.011 2.938,2.571 0.002,0.036 -0.256,0.148 -0.673,0.24 0.49,0.089 0.982,0.21 1.389,0.375 1.999,0.81 2.83,2.775 2.896,2.936 0.363,0.119 0.755,0.266 1.165,0.452 0.208,0.095 0.399,0.194 0.575,0.298 0.097,-0.074 0.253,-0.186 0.485,-0.335 0.303,-0.195 0.409,-0.239 0.26,-0.367 -6.802,-5.795 -11.899,-13.114 -14.123,-16.671 -0.063,-0.1 -0.18,-0.082 -0.369,-0.07 -2.382,0.159 -3.733,-2.677 -2.667,-5.336 -0.134,-0.541 -1.265,-1.585 -1.35,-1.66 -0.086,-0.076 -0.314,-0.408 0.073,-0.373 0.557,0.05 1.268,0.942 1.607,1.342 0.142,-0.176 0.665,-0.612 0.414,-0.859 -2.025,-1.988 -4.03,-3.057 -4.186,-3.133 -0.758,-0.37 1.265,-0.626 4.712,2.49 0.203,0.184 0.443,-0.719 0.751,-1.105 -0.592,-1.954 0.867,-5.726 0.64,-6.91 -0.04,-0.207 -0.163,-0.792 -0.852,-0.805 -3.416,-0.071 -3.751,0.086 -5.489,-0.426 -0.811,-0.239 -0.598,-0.774 -0.009,-0.614 0.666,0.18 1.365,0.451 5.064,0.22 0.904,-0.056 1.937,0.183 1.944,1.709 0.006,1.384 -1.094,5.51 -0.723,6.075 0.491,-0.37 0.847,-0.384 1.033,-0.417 -0.049,-1.346 2.118,-5.695 1.154,-8.093 -0.359,-0.891 -1.932,-0.824 -4.623,-0.558 -4.582,0.453 -6.066,-0.537 -6.16,0.012 m -0.087,-3.312 c -0.195,0.79 -0.117,1.878 0.153,2.17 0.518,0.254 1.469,0.352 1.485,0.048 0.026,-0.483 -0.327,-1.631 0.088,-3.061 -0.096,-0.225 -1.391,-0.128 -1.726,0.843 m -1.564,13.919 c 1.157,0.549 2.882,0.417 2.787,0.341 -0.095,-0.075 -0.549,-1.752 -1.852,-2.406 -1.302,-0.653 -2.164,-0.478 -2.631,-0.389 0.701,0.768 0.553,1.91 1.696,2.454 m -2.403,-2.159 c -0.39,0.37 -1.234,1.302 -1.315,2.503 -0.005,0.06 -0.007,0.116 -0.006,0.175 -0.004,1.291 0.568,2.56 0.709,2.703 0.143,0.142 1.599,-0.991 1.621,-2.615 0.02,-1.408 -0.626,-2.217 -1.009,-2.766 m -1.062,-1.672 c -0.005,-0.004 -0.009,-0.007 -0.013,-0.011 -3.223,3.796 -4.923,8.5 -4.923,13.644 0,11.751 9.559,21.311 21.312,21.311 3.101,0 6.08,-0.648 8.868,-1.926 -0.367,-0.171 -0.789,-0.421 -1.224,-0.778 -2.453,1.039 -4.923,1.527 -7.644,1.527 -11.102,0 -20.137,-9.032 -20.137,-20.134 0,-4.815 1.503,-9.047 4.446,-12.598 -0.17,-0.257 -0.409,-0.621 -0.685,-1.035 m -0.043,-7.446 c -6.479,5.161 -10.356,12.953 -10.356,21.079 0,14.762 12.009,26.774 26.775,26.774 4.307,0 8.628,-1.08 12.42,-3.055 0.076,-0.04 0.088,-0.144 0.023,-0.2 -1.114,-0.973 -2.661,-2.881 -3.05,-3.414 -2.948,1.38 -6.104,2.085 -9.393,2.085 -12.236,0 -22.192,-9.955 -22.192,-22.19 0,-5.46 1.849,-10.44 5.34,-14.437 -0.201,-0.465 -0.557,-1.482 -0.557,-2.828 0,-1.113 0.206,-2.394 0.99,-3.814 m 19.876,32.726 c -0.157,0.109 1.278,1.714 2.446,2.159 1.143,0.434 2.377,0.354 2.477,0.298 0.1,-0.057 -0.748,-1.448 -2.127,-2.006 -1.296,-0.526 -2.64,-0.561 -2.796,-0.451 m -3.633,-2.952 c 0.022,0.086 1.211,1.76 2.436,2.185 1.166,0.403 2.592,0.133 2.745,0.068 0.153,-0.063 -0.825,-1.524 -2.322,-1.974 -1.348,-0.405 -2.879,-0.364 -2.859,-0.279 m -3.595,-3.412 c -0.079,0.038 1.003,1.882 2.217,2.35 1.162,0.445 2.312,0.042 2.664,0.019 0.286,-0.019 -0.397,-1.355 -1.99,-1.943 -1.328,-0.489 -2.688,-0.526 -2.891,-0.426 m -3.205,-3.544 c -0.096,0.073 1.321,1.926 2.502,2.473 1.041,0.481 2.399,0.379 2.513,0.304 0.113,-0.076 -0.554,-1.637 -1.925,-2.237 -1.306,-0.572 -2.995,-0.613 -3.09,-0.54 m -2.673,-3.582 c 0.056,0.139 1.054,1.933 2.227,2.483 1.163,0.545 2.569,0.429 2.664,0.398 0.097,-0.031 -0.534,-1.617 -1.865,-2.277 -1.315,-0.653 -3.083,-0.742 -3.026,-0.604 m -2.058,-3.534 c 0.086,0.455 0.9,1.963 2.123,2.508 1.227,0.546 2.646,0.506 2.807,0.439 0.161,-0.066 -0.51,-1.673 -1.744,-2.264 -1.381,-0.661 -1.934,-0.276 -3.186,-0.683 m 0.105,-1.013 c 1.372,0.596 2.87,0.504 2.932,0.446 0.064,-0.058 -0.437,-1.745 -1.771,-2.461 -1.332,-0.714 -2.836,-0.78 -2.972,-0.61 -0.076,0.094 0.439,2.028 1.811,2.625 m -2.182,3.761 c 0.527,-0.265 1.163,-1.033 1.223,-2.454 0.059,-1.427 -0.962,-2.634 -1.362,-2.824 -0.278,1.09 -0.805,1.318 -0.796,2.4 0.011,1.182 0.611,2.48 0.935,2.878 m 3.623,1.876 c -0.029,-1.829 -1.178,-2.901 -1.521,-3.241 -0.212,0.363 -0.631,1.296 -0.66,2.274 -0.055,1.886 0.724,2.555 1.062,2.919 0.161,-0.54 1.134,-0.967 1.119,-1.952 m 2.56,3.838 c 0,-0.353 -0.044,-0.554 -0.145,-0.899 -0.378,-1.301 -1.145,-1.849 -1.562,-2.437 -0.167,0.385 -0.475,0.931 -0.477,1.756 -0.004,1.572 0.954,2.913 1.555,3.336 0.227,0.01 0.629,-0.947 0.629,-1.756 m 2.511,1.98 c -0.53,-1.156 -0.872,-1.194 -1.488,-1.914 -0.105,-0.124 -0.567,1.099 -0.12,2.635 0.357,1.231 1.182,1.686 1.58,2.103 0.157,0.164 0.593,-1.596 0.028,-2.824 m 3.091,3.203 c -0.521,-0.91 -0.995,-0.701 -1.863,-1.992 -0.096,-0.143 -0.325,1.068 0.194,2.703 0.402,1.259 1.642,2.043 1.774,2.074 0.199,0.048 0.515,-1.704 -0.105,-2.785 m 3.318,3.022 c -1.013,-1.512 -1.071,-0.995 -2.18,-2.472 -0.061,-0.083 -0.083,1.928 0.312,2.813 0.625,1.396 1.707,2.218 1.868,2.246 0.162,0.028 0.56,-1.753 0,-2.587 m 3.036,2.251 c -0.828,-0.672 -1.204,-1.117 -1.688,-1.904 -0.164,-0.268 -0.565,1.49 0.511,3.178 0.659,1.034 1.972,1.962 1.943,1.838 -0.095,-0.412 0.636,-1.975 -0.766,-3.112 m 2.767,3.904 c 0.854,1.011 2.302,1.825 2.464,1.725 0.166,-0.102 -0.243,-1.664 -1.178,-2.584 -0.944,-0.93 -2.404,-1.834 -2.574,-1.823 -0.17,0.011 0.521,1.772 1.288,2.682 M -35.748,-1.31 c -0.432,0.498 -0.833,0.771 -0.875,0.742 -0.12,-0.084 -0.82,-1.282 -1.063,-2.679 -1.364,2.607 -2.119,5.244 -2.242,8.366 -0.418,10.609 8.467,19.152 19.308,19.113 2.474,-0.008 4.507,-0.465 6.728,-1.368 -0.497,-0.621 -0.858,-1.366 -1.103,-1.99 -0.011,0.575 -0.162,1.022 -0.12,1.381 0.026,0.222 -1.535,-0.265 -2.923,-2.474 -0.321,-0.51 -0.522,-1.078 -0.646,-1.599 -0.029,0.828 -0.223,1.473 -0.28,1.459 -0.142,-0.039 -1.725,-0.693 -2.551,-2.626 -0.144,-0.339 -0.25,-0.689 -0.328,-1.028 -0.068,0.59 -0.22,0.978 -0.268,0.976 -0.105,-0.004 -1.764,-0.687 -2.581,-2.674 -0.191,-0.462 -0.291,-0.935 -0.338,-1.373 -0.148,0.691 -0.415,1.115 -0.5,1.008 -0.573,-0.727 -1.692,-1.049 -2.286,-2.88 -0.14,-0.431 -0.196,-0.86 -0.203,-1.261 -0.246,0.619 -0.592,0.977 -0.671,0.96 -0.163,-0.034 -1.853,-1.64 -2.106,-3.26 -0.1,-0.638 -0.054,-1.231 0.045,-1.729 -0.322,0.521 -0.752,0.904 -0.926,1.435 -0.265,-0.141 -1.697,-1.487 -1.743,-3.21 -0.018,-0.67 0.082,-1.3 0.22,-1.832 -0.476,0.865 -1.152,1.27 -1.226,1.224 -0.124,-0.075 -1.192,-1.231 -1.44,-3.307 -0.059,-0.486 10e-4,-0.952 0.118,-1.374 m 24.958,23.449 c 1.083,0.487 2.131,0.495 2.243,0.481 0.246,-0.029 -0.547,-1.439 -1.961,-2.046 -1.457,-0.626 -2.545,-0.739 -2.669,-0.678 -0.186,0.092 1.235,1.723 2.387,2.243 m -9.641,-22.215 c -0.296,0.064 -0.407,0.644 -0.346,0.873 0.133,0.51 0.916,1.562 1.198,1.932 0.07,0.091 0.214,0.006 0.229,-0.104 0.17,-1.223 -10e-4,-2.938 -1.081,-2.701 m 5.772,7.677 c -0.647,-0.439 -1.577,0.156 -1.392,0.421 1.2,1.712 2.8,2.905 3.44,3.302 1.028,0.64 1.136,0.685 1.19,0.323 0.033,-0.217 0.044,-1.337 -0.785,-2.247 -0.687,-0.754 -1.376,-0.691 -1.731,-0.77 -0.239,-0.054 -0.224,-0.692 -0.722,-1.029 m -1.818,-8.72 c -1.205,-0.739 -1.859,0.673 -2.03,0.92 -0.073,0.106 -0.264,0.417 -0.161,0.947 0.083,0.418 0.152,0.985 -0.123,2.786 -0.12,0.792 1.518,2.756 1.887,3.1 0.383,0.356 0.939,-0.178 0.975,-0.758 0.069,-1.103 -0.55,-1.683 -1.181,-2.152 -0.776,-0.578 -0.923,-1.329 -0.776,-1.531 0.058,-0.078 0.406,-0.081 0.559,0.245 0.467,0.995 1.802,1.496 2.014,2.016 0.334,0.813 0.089,1.335 0.057,1.677 -0.028,0.299 0.264,0.374 0.484,0.342 0.284,-0.043 0.41,-0.429 0.554,-0.804 0.863,-2.248 -1.308,-3.607 -1.658,-4.14 -0.162,-0.246 0.336,-2.074 -0.601,-2.648 m 6.082,13.666 c -0.061,0.36 2.56,1.242 2.651,0.981 0.168,-0.481 -0.541,-1.774 -1.419,-2.097 -0.996,-0.368 -1.411,-0.258 -1.373,-0.116 0.069,0.26 0.199,0.901 0.141,1.232 m 6.185,1.601 c -0.309,-0.881 -2.746,-1.665 -2.631,-1.045 0.052,0.28 0.006,0.648 0.192,0.679 0.27,0.047 1.041,0.316 2.238,0.622 0.12,0.031 0.277,-0.037 0.201,-0.256 m -2.462,6.499 c 0.358,0.226 0.742,0.322 0.969,0.098 0.787,-0.777 -0.853,-1.214 -0.512,-1.81 0.56,-0.98 1.451,-1.916 2.236,-2.521 0.371,-0.285 0.424,-0.925 -0.988,-1.218 -1.422,-0.294 -7.082,-1.785 -10.068,-4.949 -3.739,-3.962 -6.115,-9.093 -6.44,-8.388 -0.327,0.711 -1.076,0.826 -0.959,1.028 5.369,9.25 13.783,16.515 15.762,17.76 m -26.069,-37.744 c -0.212,-0.042 -0.891,-0.068 -0.739,0.825 0.094,0.55 0.692,0.782 0.995,0.468 -0.065,-0.427 -0.212,-0.845 -0.256,-1.293 m 30.53,24.62 c -0.435,0.911 -0.137,1.508 -0.267,2.174 -0.095,0.491 -0.826,2.109 -1.292,3.229 -0.219,0.527 1.128,0.398 0.133,2.303 -0.028,0.057 1.384,0.579 -0.028,1.649 -0.79,0.6 -1.346,1.336 -1.782,2 -0.061,0.092 -0.118,0.274 0.01,0.389 0.797,0.709 0.814,1.73 -0.052,2.253 -0.626,0.376 -1.344,-0.006 -2.005,-0.434 -0.218,-0.142 -0.327,-0.228 -0.555,-0.135 -0.115,0.047 -0.338,0.204 -0.538,0.342 0.815,0.787 0.973,1.565 0.909,1.694 -0.044,0.087 -1.382,0.388 -3.039,-0.298 -0.036,0.021 -0.075,0.042 -0.117,0.065 0.682,1.181 0.299,2.014 0.248,2.07 -10e-4,10e-4 -0.003,0.002 -0.004,0.002 1.242,1.735 2.476,2.889 3.694,3.997 0,0 0.027,0.03 0.028,0.03 0.079,0.081 0.108,0.169 -0.043,0.264 -0.128,0.081 -0.164,0.1 -0.32,0.186 -4.084,2.273 -8.741,3.468 -13.441,3.468 -15.249,0 -27.653,-12.406 -27.653,-27.652 0,-8.835 4.482,-17.355 11.807,-22.648 0.489,-0.353 0.827,-0.488 0.827,-0.488 0.122,-0.042 0.247,-0.041 0.324,0.059 l 0.108,0.143 c 0.07,0.089 0.097,0.175 0.097,0.253 0,0.203 -0.292,0.383 -0.635,0.891 -0.99,1.47 -1.429,3.14 -1.429,4.539 0,1.529 0.467,2.922 1.362,4.083 1.104,-1.15 3.511,-3.264 3.459,-5.188 -0.059,-2.161 -2.079,-2.055 -1.644,-3.675 0.274,-1.017 1.034,-0.598 1.166,-1.369 0.228,-1.337 2.025,-2.191 2.808,-2.073 0.189,0.028 0.35,-0.129 0.725,-0.51 0.535,-0.542 1.85,-0.469 2.434,-0.363 0.554,0.102 1.251,-0.405 2.411,-0.277 1.451,0.16 1.821,0.273 2.441,0.281 1.048,0.016 6.753,0.101 10.81,-0.535 0.699,-0.109 0.921,0.206 0.608,0.751 -1.47,2.561 -1.674,4.735 -0.827,7.473 1.498,-0.102 3.652,-0.507 6.488,1.198 1.006,0.605 1.569,1.894 1.52,2.854 -0.032,0.623 -0.305,1.412 -0.143,2.019 0.216,0.816 0.375,0.797 0.611,0.962 1.083,0.762 0.301,1.366 0.134,1.428 0.327,0.133 0.686,0.844 0.308,1.374 -0.194,0.206 -0.784,1.864 -0.103,2.209 0.734,0.373 1.571,0.531 2.415,0.901 0.58,0.242 1.043,0.919 0.712,1.817 -0.397,1.079 -2.613,6.154 -2.68,6.295"
       style="fill:#eeeeee;fill-opacity:1;fill-rule:nonzero;stroke:none"
       transform="matrix(1.3333333,0,0,-1.3333333,103.48347,70.342133)"
       clip-path="url(#clipPath4)" />
    <path
       id="path5"
       d="m 0,0 c -1.465,-0.055 -3.166,-1.849 -3.722,-2.098 -0.583,-0.261 -0.375,-0.426 -0.036,-0.302 0.73,0.265 1.769,1.379 3.204,1.898 1.134,0.409 1.06,-0.523 1.486,-0.472 C 1.131,-0.95 0.847,0.031 0,0"
       style="fill:#eeeeee;fill-opacity:1;fill-rule:nonzero;stroke:none"
       transform="matrix(1.3333333,0,0,-1.3333333,95.4092,57.541333)"
       clip-path="url(#clipPath6)" />
    <path
       id="path7"
       d="m 0,0 c -0.066,-0.273 -1.635,-0.148 -2.487,-0.074 -0.203,0.017 -0.544,0.049 0.106,0.437 0.512,0.306 1.215,0.821 2.136,0.999 C -0.17,1.376 -0.022,1.353 0.016,1.181 0.11,0.75 0.068,0.28 0,0 M 0.54,2.772 C 0.42,2.744 0.668,2.118 0.031,2.079 -1.346,1.994 -2.437,0.69 -3.276,0.3 -4.115,-0.092 -4.29,-0.086 -4.415,-0.119 c -0.112,-0.03 -0.07,-0.174 0.022,-0.187 3.512,-0.468 4.861,-0.34 4.891,-0.213 0.057,0.242 -0.195,0.363 -0.144,0.518 0.132,0.392 0.199,1.132 0.048,1.641 -0.064,0.24 0.52,0.08 0.52,0.403 0,0.175 -0.176,0.779 -0.382,0.729"
       style="fill:#eeeeee;fill-opacity:1;fill-rule:nonzero;stroke:none"
       transform="matrix(1.3333333,0,0,-1.3333333,95.130533,63.153333)"
       clip-path="url(#clipPath8)" />
    <path
       id="path9"
       d="m 0,0 c -0.269,0.004 -1.35,-0.49 -1.756,-0.749 -0.234,-0.149 -1.334,-0.827 -1.255,0.245 0.028,0.376 0.272,1.309 0.266,1.563 -0.01,0.387 -0.32,0.234 -0.326,0.004 -0.013,-0.538 -0.121,-0.947 -0.232,-1.578 -0.094,-0.54 0.374,-1.208 1.104,-0.819 0.605,0.322 1.431,0.877 2.163,1.017 C 0.151,-0.281 0.185,-0.003 0,0"
       style="fill:#eeeeee;fill-opacity:1;fill-rule:nonzero;stroke:none"
       transform="matrix(1.3333333,0,0,-1.3333333,101.24387,69.821333)"
       clip-path="url(#clipPath10)" />
    <path
       id="path11"
       d="M 0,0 C -0.208,0.078 -0.15,-0.351 -0.432,-0.304 -0.8,-0.241 -0.49,0.09 -0.97,0.598 -1.208,0.85 -1.808,0.956 -2.249,1.663 -2.949,2.783 -2.348,5.276 -1.325,4.919 -0.757,4.72 -0.856,3.397 -1.027,2.502 -1.132,1.95 -0.273,1.678 -0.196,1.871 -0.065,2.195 -0.512,2.164 -0.614,2.46 -0.771,2.914 0.437,4.734 -1.142,5.261 -2.295,5.646 -3.054,4.194 -2.915,2.588 -2.798,1.233 -1.897,0.675 -1.382,0.483 -0.687,0.226 -1.214,-0.726 -0.276,-0.73 0.139,-0.732 0.225,-0.084 0,0"
       style="fill:#eeeeee;fill-opacity:1;fill-rule:nonzero;stroke:none"
       transform="matrix(1.3333333,0,0,-1.3333333,74.126667,74.9372)"
       clip-path="url(#clipPath12)" />
    <path
       id="path13"
       d="m 0,0 c 0.049,-0.018 0.104,-0.003 0.137,0.039 l 1.95,2.467 C 2.138,2.57 2.113,2.664 2.038,2.695 1.929,2.74 1.818,2.784 1.708,2.827 1.657,2.847 1.601,2.831 1.567,2.789 L -0.393,0.312 C -0.444,0.246 -0.416,0.149 -0.337,0.121 -0.225,0.082 -0.112,0.041 0,0"
       style="fill:#eeeeee;fill-opacity:1;fill-rule:nonzero;stroke:none"
       transform="matrix(1.3333333,0,0,-1.3333333,86.427467,34.912533)"
       clip-path="url(#clipPath14)" />
    <path
       id="path15"
       d="m 0,0 c 0.112,-0.021 0.224,-0.044 0.336,-0.067 0.058,-0.012 0.115,0.018 0.138,0.073 L 1.615,2.831 C 1.644,2.901 1.603,2.979 1.529,2.996 1.402,3.024 1.276,3.051 1.149,3.077 1.115,3.085 1.08,3.066 1.067,3.033 0.923,2.675 0.127,0.706 -0.091,0.165 -0.12,0.093 -0.076,0.014 0,0"
       style="fill:#eeeeee;fill-opacity:1;fill-rule:nonzero;stroke:none"
       transform="matrix(1.3333333,0,0,-1.3333333,81.601867,33.571333)"
       clip-path="url(#clipPath16)" />
    <path
       id="path17"
       d="m 0,0 c 0.113,-0.001 0.227,-0.003 0.34,-0.006 0.063,-0.002 0.118,0.047 0.124,0.11 l 0.282,3 C 0.752,3.174 0.698,3.235 0.628,3.237 L 0.285,3.246 C 0.221,3.247 0.167,3.198 0.161,3.135 L -0.12,0.133 C -0.127,0.062 -0.071,0.001 0,0"
       style="fill:#eeeeee;fill-opacity:1;fill-rule:nonzero;stroke:none"
       transform="matrix(1.3333333,0,0,-1.3333333,76.239867,33.045333)"
       clip-path="url(#clipPath18)" />
    <path
       id="path19"
       d="M 0,0 C 0.112,0.018 0.224,0.034 0.336,0.051 0.404,0.062 0.451,0.126 0.438,0.194 L -0.134,3.15 C -0.146,3.215 -0.207,3.259 -0.271,3.249 -0.385,3.232 -0.497,3.214 -0.609,3.195 -0.678,3.184 -0.723,3.119 -0.709,3.052 l 0.57,-2.955 C -0.126,0.032 -0.064,-0.011 0,0"
       style="fill:#eeeeee;fill-opacity:1;fill-rule:nonzero;stroke:none"
       transform="matrix(1.3333333,0,0,-1.3333333,71.028933,33.435867)"
       clip-path="url(#clipPath20)" />
    <path
       id="path21"
       d="m 0,0 c 0.027,-0.055 0.091,-0.081 0.149,-0.061 0.108,0.038 0.215,0.075 0.324,0.111 0.07,0.023 0.103,0.103 0.07,0.17 L -0.81,2.936 C -0.837,2.991 -0.901,3.017 -0.96,2.997 -1.068,2.959 -1.177,2.92 -1.284,2.881 -1.353,2.856 -1.385,2.777 -1.353,2.712 Z"
       style="fill:#eeeeee;fill-opacity:1;fill-rule:nonzero;stroke:none"
       transform="matrix(1.3333333,0,0,-1.3333333,65.708667,34.653333)"
       clip-path="url(#clipPath22)" />
    <path
       id="path23"
       d="m 0,0 c 0.039,-0.043 0.102,-0.054 0.152,-0.025 0.1,0.057 0.201,0.113 0.302,0.169 0.068,0.037 0.085,0.127 0.033,0.186 L -1.536,2.643 C -1.575,2.687 -1.64,2.697 -1.69,2.667 -1.79,2.608 -1.89,2.549 -1.989,2.489 -2.054,2.45 -2.067,2.361 -2.018,2.305 Z"
       style="fill:#eeeeee;fill-opacity:1;fill-rule:nonzero;stroke:none"
       transform="matrix(1.3333333,0,0,-1.3333333,60.737333,36.9516)"
       clip-path="url(#clipPath24)" />
    <path
       id="path25"
       d="m 0,0 c 0.045,-0.031 0.105,-0.028 0.147,0.007 0.09,0.075 0.181,0.15 0.272,0.224 0.062,0.052 0.06,0.149 -0.007,0.195 L -2.146,2.203 C -2.192,2.235 -2.255,2.231 -2.297,2.194 -2.385,2.117 -2.474,2.039 -2.561,1.961 -2.619,1.908 -2.613,1.814 -2.549,1.77 Z"
       style="fill:#eeeeee;fill-opacity:1;fill-rule:nonzero;stroke:none"
       transform="matrix(1.3333333,0,0,-1.3333333,56.1188,40.2132)"
       clip-path="url(#clipPath26)" />
    <path
       id="path27"
       d="m 0,0 c 0.05,-0.019 0.105,-0.004 0.139,0.037 0.074,0.093 0.15,0.185 0.226,0.275 0.054,0.064 0.03,0.162 -0.049,0.192 l -2.94,1.145 C -2.675,1.669 -2.732,1.653 -2.766,1.61 -2.839,1.517 -2.91,1.422 -2.981,1.327 -3.03,1.263 -3.003,1.169 -2.928,1.14 Z"
       style="fill:#eeeeee;fill-opacity:1;fill-rule:nonzero;stroke:none"
       transform="matrix(1.3333333,0,0,-1.3333333,52.091467,44.363067)"
       clip-path="url(#clipPath28)" />
    <path
       id="path29"
       d="m 0,0 3.152,-0.44 c 0.051,-0.007 0.101,0.018 0.124,0.063 0.057,0.106 0.116,0.213 0.174,0.318 0.041,0.076 -0.005,0.168 -0.09,0.18 L 0.192,0.562 C 0.14,0.569 0.089,0.543 0.065,0.496 0.013,0.389 -0.041,0.281 -0.093,0.174 -0.129,0.1 -0.081,0.012 0,0"
       style="fill:#eeeeee;fill-opacity:1;fill-rule:nonzero;stroke:none"
       transform="matrix(1.3333333,0,0,-1.3333333,44.681333,48.649467)"
       clip-path="url(#clipPath30)" />
    <path
       id="path31"
       d="M 0,0 3.214,0.308 C 3.263,0.312 3.304,0.346 3.318,0.393 3.355,0.51 3.393,0.627 3.431,0.743 3.458,0.827 3.391,0.911 3.303,0.902 L 0.07,0.595 C 0.02,0.59 -0.022,0.554 -0.036,0.505 -0.068,0.388 -0.1,0.27 -0.131,0.151 -0.151,0.069 -0.084,-0.009 0,0"
       style="fill:#eeeeee;fill-opacity:1;fill-rule:nonzero;stroke:none"
       transform="matrix(1.3333333,0,0,-1.3333333,42.3832,55.020533)"
       clip-path="url(#clipPath32)" />
    <path
       id="path33"
       d="m 0,0 c 0.014,0.125 0.029,0.25 0.045,0.375 0.012,0.09 -0.075,0.16 -0.16,0.131 l -3.133,-1.09 C -3.295,-0.6 -3.327,-0.643 -3.33,-0.691 c -0.009,-0.123 -0.017,-0.246 -0.024,-0.37 -0.004,-0.086 0.081,-0.15 0.163,-0.122 l 3.111,1.081 C -0.036,-0.086 -0.005,-0.047 0,0"
       style="fill:#eeeeee;fill-opacity:1;fill-rule:nonzero;stroke:none"
       transform="matrix(1.3333333,0,0,-1.3333333,45.6344,60.114267)"
       clip-path="url(#clipPath34)" />
    <path
       id="path35"
       d="m 0,0 c -0.01,0.129 -0.018,0.258 -0.025,0.388 -0.006,0.093 -0.11,0.146 -0.189,0.094 l -2.837,-1.863 c -0.039,-0.025 -0.06,-0.071 -0.054,-0.118 0.016,-0.125 0.033,-0.25 0.051,-0.374 0.013,-0.089 0.114,-0.134 0.189,-0.085 l 2.81,1.848 C -0.018,-0.087 0.003,-0.044 0,0"
       style="fill:#eeeeee;fill-opacity:1;fill-rule:nonzero;stroke:none"
       transform="matrix(1.3333333,0,0,-1.3333333,45.530267,65.816133)"
       clip-path="url(#clipPath36)" />
    <path
       id="path37"
       d="M 0,0 C -0.034,0.131 -0.066,0.262 -0.099,0.394 -0.121,0.488 -0.241,0.52 -0.308,0.446 l -2.307,-2.541 c -0.031,-0.033 -0.04,-0.08 -0.026,-0.122 0.042,-0.122 0.085,-0.244 0.128,-0.366 0.032,-0.086 0.145,-0.108 0.206,-0.04 l 2.28,2.51 C 0.001,-0.083 0.011,-0.04 0,0"
       style="fill:#eeeeee;fill-opacity:1;fill-rule:nonzero;stroke:none"
       transform="matrix(1.3333333,0,0,-1.3333333,46.476933,71.516667)"
       clip-path="url(#clipPath38)" />
    <path
       id="path39"
       d="m 0,0 -1.627,-3.097 c -0.02,-0.037 -0.019,-0.082 0.002,-0.118 0.067,-0.115 0.136,-0.231 0.205,-0.346 0.049,-0.081 0.168,-0.077 0.213,0.007 l 1.609,3.064 c 0.019,0.035 0.019,0.076 0.001,0.111 -0.062,0.125 -0.125,0.25 -0.185,0.376 C 0.174,0.087 0.047,0.088 0,0"
       style="fill:#eeeeee;fill-opacity:1;fill-rule:nonzero;stroke:none"
       transform="matrix(1.3333333,0,0,-1.3333333,48.049867,76.5752)"
       clip-path="url(#clipPath40)" />
    <path
       id="path41"
       d="m 0,0 c -0.061,0.084 -0.192,0.058 -0.217,-0.043 l -0.871,-3.595 c -0.01,-0.039 0,-0.079 0.026,-0.109 0.09,-0.106 0.182,-0.21 0.274,-0.314 0.065,-0.074 0.187,-0.043 0.21,0.052 l 0.861,3.554 C 0.292,-0.42 0.284,-0.382 0.263,-0.354 0.174,-0.236 0.086,-0.118 0,0"
       style="fill:#eeeeee;fill-opacity:1;fill-rule:nonzero;stroke:none"
       transform="matrix(1.3333333,0,0,-1.3333333,51.101867,81.215867)"
       clip-path="url(#clipPath42)" />
  </g>
</svg>
