<?xml version="1.0" encoding="UTF-8" standalone="no"?>
<svg
   xmlns:dc="http://purl.org/dc/elements/1.1/"
   xmlns:cc="http://creativecommons.org/ns#"
   xmlns:rdf="http://www.w3.org/1999/02/22-rdf-syntax-ns#"
   xmlns:svg="http://www.w3.org/2000/svg"
   xmlns="http://www.w3.org/2000/svg"
   xmlns:sodipodi="http://sodipodi.sourceforge.net/DTD/sodipodi-0.dtd"
   xmlns:inkscape="http://www.inkscape.org/namespaces/inkscape"
   width="93.943687mm"
   height="91.83876mm"
   viewBox="0 0 93.943687 91.83876"
   version="1.1"
   id="svg998"
   inkscape:version="1.0.2 (e86c870879, 2021-01-15)"
   sodipodi:docname="time-vs-machine.svg">
  <defs
     id="defs992" />
  <sodipodi:namedview
     id="base"
     pagecolor="#ffffff"
     bordercolor="#666666"
     borderopacity="1.0"
     inkscape:pageopacity="0.0"
     inkscape:pageshadow="2"
     inkscape:zoom="1.979899"
     inkscape:cx="70.852526"
     inkscape:cy="169.2861"
     inkscape:document-units="mm"
     inkscape:current-layer="layer1"
     inkscape:document-rotation="0"
     showgrid="false"
     fit-margin-top="0"
     fit-margin-left="0"
     fit-margin-right="0"
     fit-margin-bottom="0"
     inkscape:window-width="1880"
     inkscape:window-height="1051"
     inkscape:window-x="430"
     inkscape:window-y="1440"
     inkscape:window-maximized="1" />
  <metadata
     id="metadata995">
    <rdf:RDF>
      <cc:Work
         rdf:about="">
        <dc:format>image/svg+xml</dc:format>
        <dc:type
           rdf:resource="http://purl.org/dc/dcmitype/StillImage" />
        <dc:title></dc:title>
      </cc:Work>
    </rdf:RDF>
  </metadata>
  <g
     inkscape:label="Layer 1"
     inkscape:groupmode="layer"
     id="layer1"
     transform="translate(-54.35343,-83.119896)">
    <g
       aria-label="→"
       transform="matrix(0,-1.0983837,0.91042865,0,7.02852,213.56602)"
       id="text839-0-2"
       style="font-style:normal;font-weight:normal;font-size:24.9589px;line-height:1.25;font-family:sans-serif;letter-spacing:0px;word-spacing:0px;fill:#66ffcc;fill-opacity:1;stroke:none;stroke-width:0.623975">
      <path
         d="m 113.71649,61.844939 c 1.13745,1.251195 2.04334,2.136781 2.71769,2.656758 0.67435,0.519977 1.45025,1.007456 2.32771,1.462435 v 0.548414 c -0.98308,0.519977 -1.88085,1.117138 -2.69332,1.791483 -0.81246,0.666221 -1.59649,1.433999 -2.35208,2.303336 h -0.92621 c 0.39811,-0.812464 0.73934,-1.450248 1.02371,-1.913353 0.28436,-0.463105 0.61747,-0.922147 0.99933,-1.377127 H 45.744883 V 65.17198 h 69.068437 c -0.56873,-0.731218 -0.96684,-1.295881 -1.19433,-1.693988 -0.21936,-0.398107 -0.4956,-0.942458 -0.82871,-1.633053 z"
         style="fill:#66ffcc;fill-opacity:1;stroke-width:0.623975"
         id="path945"
         sodipodi:nodetypes="cscccccsccccccc" />
    </g>
    <text
       xml:space="preserve"
       style="font-style:normal;font-weight:normal;font-size:10.5833px;line-height:1.25;font-family:sans-serif;letter-spacing:0px;word-spacing:0px;fill:#66ffcc;fill-opacity:1;stroke:none;stroke-width:0.264583"
       x="-155.48691"
       y="62.290905"
       id="text993"
       transform="rotate(-90)"><tspan
         sodipodi:role="line"
         id="tspan991"
         x="-155.48691"
         y="62.290905"
         style="font-style:normal;font-variant:normal;font-weight:normal;font-stretch:normal;font-family:'Roboto Condensed';-inkscape-font-specification:'Roboto Condensed, ';fill:#66ffcc;fill-opacity:1;stroke-width:0.264583">other machines</tspan></text>
    <g
       aria-label="→"
       transform="matrix(1.0983837,0,0,0.91042865,17.850993,103.84016)"
       id="text839-0-2-1"
       style="font-style:normal;font-weight:normal;font-size:24.9589px;line-height:1.25;font-family:sans-serif;letter-spacing:0px;word-spacing:0px;fill:#ff6fcf;fill-opacity:1;stroke:none;stroke-width:0.623975">
      <path
         d="m 113.71649,61.844939 c 1.13745,1.251195 2.04334,2.136781 2.71769,2.656758 0.67435,0.519977 1.45025,1.007456 2.32771,1.462435 v 0.548414 c -0.98308,0.519977 -1.88085,1.117138 -2.69332,1.791483 -0.81246,0.666221 -1.59649,1.433999 -2.35208,2.303336 h -0.92621 c 0.39811,-0.812464 0.73934,-1.450248 1.02371,-1.913353 0.28436,-0.463105 0.61747,-0.922147 0.99933,-1.377127 H 45.744883 V 65.17198 h 69.068437 c -0.56873,-0.731218 -0.96684,-1.295881 -1.19433,-1.693988 -0.21936,-0.398107 -0.4956,-0.942458 -0.82871,-1.633053 z"
         style="fill:#ff6fcf;fill-opacity:1;stroke-width:0.623975"
         id="path945-4"
         sodipodi:nodetypes="cscccccsccccccc" />
    </g>
    <text
       xml:space="preserve"
       style="font-style:normal;font-weight:normal;font-size:10.5833px;line-height:1.25;font-family:sans-serif;letter-spacing:0px;word-spacing:0px;fill:#ff6fcf;fill-opacity:1;stroke:none;stroke-width:0.264583"
       x="99.101746"
       y="174.8553"
       id="text993-9"><tspan
         sodipodi:role="line"
         id="tspan991-2"
         x="99.101746"
         y="174.8553"
         style="font-style:normal;font-variant:normal;font-weight:normal;font-stretch:normal;font-family:'Roboto Condensed';-inkscape-font-specification:'Roboto Condensed, ';fill:#ff6fcf;fill-opacity:1;stroke-width:0.264583">time</tspan></text>
  </g>
</svg>
